<svg width="80" height="80" viewBox="0 0 80 80" fill="none" xmlns="http://www.w3.org/2000/svg">
<path d="M20.26 40C20.2653 34.7662 22.3468 29.7484 26.0476 26.0476C29.7484 22.3467 34.7663 20.2653 40 20.26C43.4631 20.2671 46.8638 21.1815 49.8635 22.9121C52.8631 24.6426 55.357 27.1289 57.0967 30.1233L52.1 33.0133L68.8567 23.34C68.4257 22.5579 67.8028 21.8983 67.0467 21.4233L42.5633 7.28999C41.15 6.47332 38.8433 6.47332 37.4333 7.28999L12.95 21.4233C11.5433 22.2367 10.39 24.2367 10.39 25.8667V54.1333C10.39 54.95 10.6767 55.8567 11.1433 56.66L22.9067 49.8667C21.1683 46.8694 20.2551 43.4649 20.26 40Z" fill="#1A1A1A"/>
<path d="M48.5467 35.0632C47.6777 33.5655 46.4312 32.3218 44.9316 31.4562C43.432 30.5906 41.7316 30.1333 40 30.1299C38.269 30.1333 36.5692 30.5914 35.0709 31.4584C33.5727 32.3253 32.3285 33.5708 31.4629 35.0699C30.5974 36.569 30.141 38.2692 30.1393 40.0003C30.1376 41.7313 30.5908 43.4324 31.4534 44.9332L40 39.9999L48.5467 35.0632Z" fill="#1A1A1A"/>
<path d="M68.8567 23.3401L52.0367 33.0501L48.55 35.0668L48.5467 35.0634L40 40.0001L31.4567 44.9334C32.3232 46.4328 33.5685 47.6782 35.068 48.5446C36.5674 49.411 38.2682 49.8681 40 49.8701C41.7325 49.8673 43.4339 49.4099 44.9343 48.5436C46.4347 47.6773 47.6814 46.4325 48.55 44.9334L57.0933 49.8768C55.3542 52.8716 52.8604 55.3582 49.8606 57.0889C46.8609 58.8195 43.4599 59.7336 39.9967 59.7401C36.5319 59.738 33.1285 58.8247 30.1283 57.0917C27.128 55.3587 24.6363 52.867 22.9033 49.8668L11.14 56.6601C11.6067 57.4667 12.2467 58.1701 12.95 58.5768L37.4333 72.7101C38.8433 73.5267 41.15 73.5267 42.5633 72.7101L67.0467 58.5768C67.75 58.1701 68.39 57.4667 68.8567 56.6601C69.3233 55.8568 69.61 54.9501 69.61 54.1334V25.8668C69.61 25.0501 69.3233 24.1434 68.8567 23.3401ZM59.74 41.0968H57.5467V43.2901H55.3567V41.0968H53.1634V38.9034H55.3567V36.7101H57.5467V38.9034H59.74V41.0968ZM67.9667 41.0968H65.7733V43.2901H63.58V41.0968H61.39V38.9034H63.58V36.7101H65.7733V38.9034H67.9667V41.0968Z" fill="#1A1A1A"/>
</svg>
