<svg width="67" height="67" viewBox="0 0 67 67" fill="none" xmlns="http://www.w3.org/2000/svg">
<path d="M59.4392 0L53.8659 60.3673L29.7192 66.8689L5.57212 60.3673L0 0H59.4392ZM48.2087 12.2747H29.6975H10.8583L11.7593 19.5647H29.6975H30.7051L29.6975 19.9841L12.4149 27.1821L12.9881 34.3078L29.6975 34.362L38.6532 34.3904L38.0799 43.8915L29.6974 46.2516V46.2441L29.6287 46.2632L21.5332 44.2196L21.0419 38.3218H21.0151H13.5061H13.4797L14.4626 49.7075L29.6976 54.2128V54.2047L29.7251 54.2128L44.8785 49.7895L46.8441 27.1821H29.6976H29.6554L29.6976 27.1638L47.4722 19.5647L48.2087 12.2747Z" fill="#1A1A1A"/>
</svg>
