<svg width="40" height="40" viewBox="0 0 40 40" fill="none" xmlns="http://www.w3.org/2000/svg">
<path d="M20 0.00146457C31.05 0.00146457 40 9.17768 40 20.507C39.9971 29.317 34.5157 37.1443 26.3757 39.9609C25.3757 40.1659 25 39.5244 25 38.9868C25 38.2941 25.0257 36.0897 25.0257 33.3478C25.0257 31.4262 24.4014 30.1958 23.6757 29.5543C28.1257 29.0417 32.8014 27.2987 32.8014 19.4304C32.8014 17.1748 32.0257 15.3542 30.7514 13.9203C30.9514 13.4077 31.6514 11.3059 30.5514 8.48635C30.5514 8.48635 28.8757 7.92245 25.0514 10.5882C23.4514 10.1268 21.7514 9.89684 20.0514 9.89684C18.3514 9.89684 16.6514 10.1268 15.0514 10.5882C11.2271 7.94882 9.55143 8.48635 9.55143 8.48635C8.45143 11.3059 9.15143 13.4077 9.35143 13.9203C8.07714 15.3557 7.30143 17.2012 7.30143 19.4304C7.30143 27.2738 11.9514 29.0431 16.4014 29.5558C15.8257 30.0684 15.3014 30.9663 15.1257 32.2977C13.9757 32.8367 11.1 33.7081 9.30143 30.6059C8.92572 29.9908 7.80143 28.4792 6.22715 28.5041C4.55143 28.5305 5.55286 29.4781 6.25143 29.8619C7.10143 30.3482 8.07572 32.1688 8.30143 32.759C8.70143 33.9117 10.0014 36.1175 15.0257 35.1684C15.0257 36.8865 15.0514 38.5006 15.0514 38.9868C15.0514 39.5258 14.6757 40.1396 13.6757 39.9609C5.50572 37.1721 -0.00428322 29.3346 2.49832e-06 20.5055C2.49832e-06 9.17622 8.95 0.00146457 20 0.00146457Z" fill="#1A1A1A"/>
</svg>
