<svg width="70" height="70" viewBox="0 0 70 70" fill="none" xmlns="http://www.w3.org/2000/svg">
<path fill-rule="evenodd" clip-rule="evenodd" d="M39.6325 30.7217C38.808 30.9525 37.972 31.1863 37.0042 31.4492C36.5315 31.5831 36.4239 31.6135 35.984 31.0787C35.4563 30.4487 35.0694 30.0411 34.3304 29.6704C32.114 28.5215 29.9679 28.8551 27.9626 30.2264C25.5704 31.857 24.339 34.2659 24.3742 37.2678C24.4092 40.2327 26.3443 42.6788 29.1237 43.0863C31.516 43.4199 33.5213 42.5305 35.1044 40.6405C35.4209 40.2329 35.7026 39.7878 36.0544 39.2691H29.2644C28.5254 39.2691 28.3496 38.7874 28.5959 38.1572C29.0533 37.0083 29.8977 35.0814 30.3901 34.1178C30.4957 33.8953 30.742 33.5247 31.2697 33.5247H42.5911C43.0997 31.8272 43.9248 30.2234 45.0255 28.7057C47.5939 25.1477 50.6899 23.2947 54.8763 22.5166C58.4649 21.8494 61.8422 22.22 64.9029 24.4066C67.6824 26.4079 69.4061 29.1132 69.8635 32.6712C70.4616 37.6742 69.0896 41.751 65.8177 45.2346C63.4957 47.7177 60.646 49.2743 57.3742 49.9785C56.7501 50.1001 56.126 50.1578 55.5118 50.2147C55.1913 50.2445 54.8735 50.2738 54.5598 50.312C51.3581 50.2379 48.4383 49.2743 45.9754 47.0507C44.2435 45.4735 43.0507 43.5354 42.4576 41.2792C42.0462 42.1546 41.5542 42.9929 40.9798 43.7905C38.4466 47.3112 35.1396 49.4979 30.9531 50.0909C27.5052 50.5726 24.3038 49.8684 21.4893 47.6448C18.8859 45.5693 17.4082 42.8269 17.0213 39.4174C16.5639 35.3778 17.6897 31.7459 20.0117 28.5587C22.5096 25.112 25.8167 22.9254 29.8624 22.1471C33.1695 21.5171 36.3357 21.9249 39.1856 23.9632C41.05 25.2601 42.387 27.0392 43.2666 29.1887C43.4777 29.5223 43.3368 29.7075 42.9146 29.8187C41.6817 30.1485 40.6663 30.4327 39.6325 30.7217ZM62.9084 34.9431C62.9154 35.0676 62.9226 35.1988 62.9329 35.3395C62.757 38.5267 61.2441 40.8986 58.4649 42.418C56.6003 43.4186 54.6652 43.5299 52.7304 42.6405C50.1972 41.4544 48.8602 38.5267 49.4935 35.6359C50.2677 32.1523 52.3784 29.9657 55.6502 29.1874C58.9925 28.3721 62.1941 30.4474 62.8274 34.1165C62.8771 34.379 62.8917 34.6412 62.9084 34.9431Z" fill="#1A1A1A"/>
<path d="M5.34757 30.3006C5.2772 30.4117 5.31237 30.4859 5.45309 30.4859L15.9307 30.5231C16.0362 30.5231 16.2121 30.4117 16.2825 30.3006L16.8806 29.337C16.9509 29.2259 16.9157 29.1147 16.775 29.1147H6.47336C6.33264 29.1147 6.15672 29.1889 6.08637 29.3L5.34757 30.3006Z" fill="#1A1A1A"/>
<path d="M0.0351813 33.71C-0.0351813 33.8211 1.62981e-08 33.8953 0.140725 33.8953L14.5234 33.8583C14.6641 33.8583 14.8049 33.7842 14.84 33.6359L15.1215 32.7464C15.1567 32.6353 15.0863 32.5242 14.9456 32.5242H1.16098C1.02026 32.5242 0.844351 32.5981 0.773988 32.7095L0.0351813 33.71Z" fill="#1A1A1A"/>
<path d="M8.54904 37.0827C8.47867 37.1938 8.51385 37.305 8.65459 37.305L14.0661 37.3421C14.1716 37.3421 14.3123 37.231 14.3123 37.0827L14.3827 36.1933C14.3827 36.045 14.3123 35.9338 14.1716 35.9338H9.3934C9.25265 35.9338 9.11193 36.045 9.04158 36.1561L8.54904 37.0827Z" fill="#1A1A1A"/>
</svg>
