<svg width="40" height="40" viewBox="0 0 40 40" fill="none" xmlns="http://www.w3.org/2000/svg">
<path d="M11.7168 0.14209C9.5882 0.242086 8.13532 0.582074 6.8653 1.08063C5.55099 1.59346 4.43669 2.28058 3.32667 3.3934C2.21808 4.50621 1.53521 5.62189 1.02663 6.93755C0.533763 8.21036 0.2009 9.66459 0.106613 11.7945C0.0123257 13.923 -0.00767459 14.6087 0.00232558 20.0385C0.0123258 25.4683 0.0366118 26.1497 0.139471 28.2839C0.240901 30.411 0.579478 31.8638 1.07806 33.1352C1.59092 34.4494 2.27808 35.5636 3.39095 36.6736C4.50383 37.7821 5.61813 38.4635 6.93816 38.9735C8.20961 39.4649 9.66535 39.8006 11.794 39.8935C13.9226 39.9863 14.6083 40.0078 20.0384 39.9978C25.4685 39.9878 26.1513 39.9635 28.2857 39.862C30.42 39.7606 31.8643 39.4206 33.1357 38.9235C34.4501 38.4092 35.5658 37.7236 36.6744 36.6093C37.783 35.4951 38.4658 34.3794 38.973 33.0623C39.4659 31.7909 39.8001 30.3353 39.893 28.2082C39.9859 26.074 40.0087 25.3926 39.9973 19.9614C39.9859 14.5301 39.963 13.8502 39.8616 11.7174C39.7601 9.5846 39.4216 8.13608 38.923 6.8647C38.4087 5.55046 37.723 4.43622 36.6101 3.32626C35.4972 2.2163 34.3801 1.5349 33.0629 1.02777C31.79 0.534932 30.3357 0.19923 28.2071 0.107805C26.0785 0.0163799 25.3928 -0.00790471 19.9612 0.00209492C14.5297 0.0120946 13.8497 0.0363793 11.7168 0.139233M11.9511 36.2936C10.0011 36.2093 8.94248 35.8851 8.23675 35.6136C7.30245 35.2537 6.63672 34.818 5.93385 34.1223C5.23099 33.4266 4.79812 32.758 4.43383 31.8252C4.15954 31.1195 3.82953 30.0624 3.7381 28.1125C3.63953 26.0054 3.6181 25.3726 3.60667 20.0328C3.59524 14.693 3.61524 14.0616 3.7081 11.9531C3.79096 10.0046 4.11668 8.94462 4.38811 8.23893C4.74812 7.30325 5.18241 6.63899 5.87957 5.93616C6.57672 5.23333 7.24388 4.80049 8.17675 4.43622C8.88105 4.16051 9.93964 3.83338 11.8882 3.74053C13.9968 3.64053 14.6297 3.62053 19.9684 3.6091C25.307 3.59768 25.9413 3.61768 28.0514 3.71053C30 3.79481 31.06 4.11766 31.7643 4.3905C32.6986 4.75049 33.3643 5.18333 34.0672 5.88188C34.7701 6.58042 35.2029 7.24468 35.5686 8.18036C35.8444 8.88319 36.1715 9.9403 36.2629 11.8902C36.3629 13.9987 36.3858 14.6316 36.3958 19.9699C36.4058 25.3083 36.3872 25.9426 36.2944 28.0496C36.2087 29.9996 35.8858 31.0581 35.6144 31.7652C35.2544 32.6995 34.8201 33.3651 34.1215 34.068C33.4229 34.7708 32.7572 35.2036 31.8243 35.5679C31.12 35.8422 30.0614 36.1708 28.1142 36.2636C26.0056 36.3622 25.3728 36.3836 20.0327 36.395C14.6926 36.4065 14.0597 36.385 11.9511 36.2936ZM28.2557 9.31175C28.2585 10.6374 29.3343 11.7102 30.66 11.7074C31.9857 11.7045 33.0586 10.6288 33.0557 9.30318C33.0529 7.97751 31.9772 6.9047 30.6514 6.90755C29.3257 6.91041 28.2542 7.98608 28.2557 9.31175ZM9.73106 20.0199C9.74249 25.6911 14.3483 30.2795 20.0198 30.2681C25.6913 30.2567 30.2814 25.6511 30.2714 19.9799C30.26 14.3087 25.6528 9.71888 19.9812 9.73031C14.3097 9.74173 9.71963 14.3487 9.73106 20.0199ZM13.3354 20.0128C13.3283 16.3315 16.3069 13.3402 19.9898 13.333C23.6713 13.3259 26.6628 16.3043 26.6699 19.9871C26.6771 23.6684 23.6984 26.6597 20.0155 26.6668C16.334 26.674 13.3426 23.6969 13.3354 20.0156" fill="#1A1A1A"/>
</svg>
