<svg width="40" height="40" viewBox="0 0 40 40" fill="none" xmlns="http://www.w3.org/2000/svg">
<path fill-rule="evenodd" clip-rule="evenodd" d="M35.5554 0H4.44462C1.99077 0 0 1.98923 0 4.44462V35.5554C0 38.0092 1.98923 40 4.44462 40H35.5554C38.0092 40 40 38.0108 40 35.5554V4.44462C40 1.99077 38.0108 0 35.5554 0ZM12.0938 34.4446H6.12923V15.1846H12.0938V34.4446ZM9.08308 12.6631C7.13385 12.6631 5.55538 11.0723 5.55538 9.10923C5.55538 7.14615 7.13385 5.55538 9.08308 5.55538C11.0323 5.55538 12.6092 7.14615 12.6092 9.10923C12.6092 11.0723 11.0308 12.6631 9.08308 12.6631ZM34.4446 34.4446H28.5092V24.3354C28.5092 21.5631 27.4554 20.0138 25.2615 20.0138C22.8754 20.0138 21.6277 21.6262 21.6277 24.3354V34.4446H15.9077V15.1846H21.6277V17.7785C21.6277 17.7785 23.3477 14.5954 27.4354 14.5954C31.5231 14.5954 34.4446 17.0892 34.4446 22.2492V34.4446Z" fill="#1A1A1A"/>
</svg>
