<svg width="70" height="70" viewBox="0 0 70 70" fill="none" xmlns="http://www.w3.org/2000/svg">
<g clip-path="url(#clip0_10_34)">
<path fill-rule="evenodd" clip-rule="evenodd" d="M44.604 64.603C42.917 64.603 41.552 63.2312 41.552 61.5354C41.552 59.8396 42.917 58.4712 44.604 58.4712C46.291 58.4712 47.656 59.8396 47.656 61.5354C47.656 63.2312 46.291 64.603 44.604 64.603ZM35.252 70C53.025 70 51.9155 62.2532 51.9155 62.2532L51.8945 54.2278H34.937V51.8181H58.6285C58.6285 51.8181 70 53.1165 70 35.0923C70 17.0681 60.0775 17.7034 60.0775 17.7034H54.1519V26.0706C54.1519 26.0706 54.4705 36.0442 44.387 36.0442H27.566C27.566 36.0442 18.116 35.8942 18.116 45.2283V60.6587C18.116 60.6587 16.681 70 35.252 70ZM25.3995 5.39697C27.0865 5.39697 28.448 6.76878 28.448 8.4646C28.448 10.1604 27.0865 11.5288 25.3995 11.5288C23.7125 11.5288 22.3475 10.1604 22.3475 8.4646C22.3475 6.76878 23.7125 5.39697 25.3995 5.39697ZM34.748 0C16.9785 0 18.088 7.74683 18.088 7.74683L18.109 15.7722H35.0665V18.1819H11.3715C11.3715 18.1819 0 16.8835 0 34.9077C0 52.9319 9.92599 52.2966 9.92599 52.2966H15.8481V43.9294C15.8481 43.9294 15.5295 33.9558 25.6165 33.9558H42.434C42.434 33.9558 51.884 34.1058 51.884 24.7717V9.34131C51.884 9.34131 53.319 0 34.748 0Z" fill="#1A1A1A"/>
</g>
<defs>
<clipPath id="clip0_10_34">
<rect width="70" height="70" fill="white"/>
</clipPath>
</defs>
</svg>
